<svg width="512" height="512" viewBox="0 0 512 512" fill="none" xmlns="http://www.w3.org/2000/svg">
<path d="M185.473 86.1873C167.225 87.0486 154.761 89.9716 143.87 94.2392C132.596 98.6344 123.039 104.524 113.531 114.071C104.013 123.623 98.1674 133.197 93.8055 144.482C89.5825 155.401 86.7208 167.871 85.9148 186.13C85.1149 204.423 84.9314 210.257 85.0206 256.828C85.1094 303.393 85.3149 309.238 86.1871 327.537C87.0594 345.779 89.9714 358.237 94.239 369.134C98.6397 380.408 104.524 389.96 114.076 399.473C123.622 408.986 133.201 414.826 144.493 419.194C155.4 423.412 167.875 426.284 186.128 427.084C204.421 427.89 210.261 428.068 256.82 427.979C303.401 427.89 309.241 427.684 327.533 426.817C345.781 425.945 358.233 423.023 369.136 418.766C380.41 414.354 389.967 408.481 399.474 398.929C408.982 389.382 414.827 379.803 419.19 368.512C423.412 357.604 426.285 345.129 427.08 326.887C427.88 308.583 428.069 302.737 427.98 256.172C427.891 209.602 427.68 203.767 426.813 185.48C425.946 167.221 423.023 154.768 418.761 143.866C414.355 132.592 408.476 123.045 398.93 113.527C389.384 104.019 379.804 98.1624 368.513 93.8115C357.6 89.5885 345.131 86.71 326.877 85.9211C308.585 85.1096 302.745 84.9319 256.169 85.0207C209.605 85.1099 203.765 85.3099 185.473 86.1876M187.473 396.217C170.753 395.489 161.674 392.711 155.623 390.383C147.61 387.282 141.892 383.565 135.874 377.591C129.868 371.596 126.139 365.894 123.011 357.898C120.66 351.847 117.832 342.778 117.049 326.058C116.198 307.983 116.004 302.559 115.92 256.766C115.832 210.985 115.998 205.562 116.788 187.469C117.504 170.76 120.299 161.67 122.622 155.624C125.723 147.6 129.428 141.894 135.413 135.876C141.409 129.858 147.11 126.14 155.112 123.012C161.157 120.65 170.226 117.844 186.94 117.05C205.027 116.194 210.444 116.01 256.225 115.922C302.017 115.832 307.44 115.994 325.533 116.788C342.241 117.516 351.332 120.284 357.372 122.623C365.39 125.723 371.108 129.419 377.12 135.414C383.133 141.41 386.861 147.1 389.989 155.118C392.351 161.147 395.157 170.227 395.946 186.936C396.807 205.023 397.002 210.446 397.085 256.228C397.174 302.02 397.007 307.443 396.213 325.525C395.485 342.245 392.712 351.33 390.378 357.387C387.278 365.394 383.571 371.112 377.581 377.13C371.592 383.126 365.891 386.865 357.883 389.993C351.849 392.349 342.769 395.161 326.066 395.956C307.98 396.806 302.561 397.001 256.764 397.084C210.983 397.173 205.566 397.001 187.473 396.217M327.283 164.826C327.305 176.184 336.54 185.38 347.898 185.358C359.261 185.336 368.457 176.106 368.441 164.748C368.419 153.39 359.183 144.189 347.82 144.211C336.457 144.233 327.261 153.468 327.283 164.826M168.442 256.666C168.536 305.304 208.038 344.645 256.664 344.551C305.296 344.456 344.659 304.965 344.564 256.327C344.47 207.707 304.962 168.343 256.325 168.437C207.699 168.532 168.347 208.04 168.442 256.666M199.331 256.605C199.275 225.038 224.825 199.394 256.386 199.338C287.953 199.277 313.603 224.815 313.664 256.389C313.725 287.962 288.175 313.6 256.603 313.661C225.041 313.722 199.392 288.178 199.331 256.605" fill="#31322D"/>
</svg>
