<svg width="512" height="512" viewBox="0 0 512 512" fill="none" xmlns="http://www.w3.org/2000/svg">
<g clip-path="url(#clip0_779_53)">
<path d="M149.977 1.7723C122.738 3.05793 104.134 7.42117 87.8761 13.7915C71.0466 20.3522 56.7808 29.1443 42.5892 43.3942C28.3812 57.6524 19.6551 71.9439 13.144 88.7902C6.8403 105.089 2.56868 123.702 1.36548 150.958C0.171498 178.264 -0.102422 186.973 0.0306978 256.489C0.163306 325.997 0.469994 334.723 1.77201 362.037C3.07403 389.268 7.42091 407.864 13.7912 424.13C20.3602 440.959 29.1435 455.217 43.4017 469.418C57.6517 483.618 71.9508 492.335 88.8054 498.855C105.087 505.151 123.708 509.439 150.956 510.633C178.26 511.836 186.978 512.102 256.477 511.969C326.009 511.836 334.727 511.529 362.032 510.235C389.271 508.933 407.858 504.57 424.133 498.217C440.962 491.631 455.228 482.863 469.419 468.605C483.612 454.355 492.337 440.055 498.849 423.201C505.152 406.919 509.44 388.298 510.626 361.067C511.82 333.745 512.103 325.019 511.97 255.511C511.837 185.994 511.522 177.285 510.229 149.987C508.934 122.732 504.571 104.144 498.209 87.8701C491.632 71.0407 482.857 56.7907 468.607 42.5822C454.357 28.3901 440.058 19.6477 423.203 13.153C406.913 6.84927 388.3 2.55259 361.053 1.37499C333.748 0.163603 325.03 -0.101638 255.506 0.0309695C185.999 0.164089 177.283 0.462096 149.977 1.7723Z" fill="#0077FF"/>
<path d="M271.026 368.854C154.332 368.854 87.7733 288.854 85 155.734H143.453C145.373 253.441 188.466 294.828 222.599 303.361V155.734H277.641V240.001C311.348 236.374 346.757 197.974 358.703 155.734H413.745C404.571 207.788 366.171 246.188 338.865 261.974C366.171 274.774 409.907 308.268 426.547 368.854H365.958C352.945 328.321 320.521 296.961 277.641 292.694V368.854H271.026Z" fill="white"/>
</g>
<defs>
<clipPath id="clip0_779_53">
<rect width="512" height="512" fill="white"/>
</clipPath>
</defs>
</svg>
